<svg width="87" height="47" viewBox="0 0 87 47" fill="none" xmlns="http://www.w3.org/2000/svg">
<path d="M13.7369 14.9741H13.734C11.2737 14.9741 9.2793 16.9214 9.2793 19.3235V19.3264C9.2793 21.7285 11.2737 23.6758 13.734 23.6758H13.7369C16.1972 23.6758 18.1917 21.7285 18.1917 19.3264V19.3235C18.1917 16.9214 16.1972 14.9741 13.7369 14.9741Z" fill="#2196F3"/>
<path d="M46.6176 13.5837C46.6106 10.2473 45.2502 7.04939 42.8342 4.68991C40.4183 2.33042 37.1434 1.00147 33.7263 0.993896V0.993896C30.3081 0.999958 27.0317 2.32823 24.6145 4.68789C22.1972 7.04754 20.8361 10.2463 20.8291 13.5837V31.9824C20.8291 31.9824 46.6146 29.1783 46.6176 13.5866V13.5837Z" fill="#2196F3"/>
<path d="M0.25 38.0212C0.256198 40.3427 1.20325 42.5675 2.88422 44.2094C4.56518 45.8512 6.84339 46.7766 9.22101 46.7834C11.5981 46.7766 13.8759 45.8516 15.5568 44.2104C17.2376 42.5691 18.185 40.3451 18.192 38.0241V25.2219C18.192 25.2219 0.25 27.1745 0.25 38.0212ZM9.22101 40.315C8.75638 40.315 8.30219 40.1805 7.91586 39.9284C7.52954 39.6764 7.22844 39.3181 7.05063 38.899C6.87283 38.4799 6.8263 38.0187 6.91695 37.5737C7.00759 37.1288 7.23133 36.7201 7.55987 36.3993C7.88841 36.0785 8.307 35.86 8.7627 35.7715C9.2184 35.683 9.69075 35.7284 10.12 35.902C10.5493 36.0756 10.9162 36.3696 11.1743 36.7469C11.4324 37.1241 11.5702 37.5675 11.5702 38.0212C11.5714 38.3232 11.5115 38.6224 11.3939 38.9016C11.2764 39.1809 11.1035 39.4348 10.8853 39.6487C10.667 39.8626 10.4076 40.0324 10.122 40.1482C9.83645 40.264 9.53025 40.3236 9.22101 40.3236V40.315Z" fill="#2196F3"/>
<path d="M27.2764 38.5103H25.5889V40.2534H24.71V35.9878H27.4873V36.6997H25.5889V37.8013H27.2764V38.5103ZM31.501 38.2173C31.501 38.6372 31.4268 39.0054 31.2783 39.3218C31.1299 39.6382 30.917 39.8823 30.6396 40.0542C30.3643 40.2261 30.0479 40.312 29.6904 40.312C29.3369 40.312 29.0215 40.2271 28.7441 40.0571C28.4668 39.8872 28.252 39.645 28.0996 39.3306C27.9473 39.0142 27.8701 38.6509 27.8682 38.2407V38.0298C27.8682 37.6099 27.9434 37.2407 28.0938 36.9224C28.2461 36.6021 28.46 36.3569 28.7354 36.187C29.0127 36.0151 29.3291 35.9292 29.6846 35.9292C30.04 35.9292 30.3555 36.0151 30.6309 36.187C30.9082 36.3569 31.1221 36.6021 31.2725 36.9224C31.4248 37.2407 31.501 37.6089 31.501 38.0269V38.2173ZM30.6104 38.0239C30.6104 37.5767 30.5303 37.2368 30.3701 37.0044C30.21 36.772 29.9814 36.6558 29.6846 36.6558C29.3896 36.6558 29.1621 36.771 29.002 37.0015C28.8418 37.23 28.7607 37.5659 28.7588 38.0093V38.2173C28.7588 38.6528 28.8389 38.9907 28.999 39.231C29.1592 39.4712 29.3896 39.5913 29.6904 39.5913C29.9854 39.5913 30.2119 39.4761 30.3701 39.2456C30.5283 39.0132 30.6084 38.6753 30.6104 38.2319V38.0239ZM34.3516 39.1343C34.3516 38.9683 34.293 38.8413 34.1758 38.7534C34.0586 38.6636 33.8477 38.5698 33.543 38.4722C33.2383 38.3726 32.9971 38.2749 32.8193 38.1792C32.335 37.9175 32.0928 37.5649 32.0928 37.1216C32.0928 36.8911 32.1572 36.686 32.2861 36.5063C32.417 36.3247 32.6035 36.1831 32.8457 36.0815C33.0898 35.98 33.3633 35.9292 33.666 35.9292C33.9707 35.9292 34.2422 35.9849 34.4805 36.0962C34.7188 36.2056 34.9033 36.3608 35.0342 36.562C35.167 36.7632 35.2334 36.9917 35.2334 37.2476H34.3545C34.3545 37.0522 34.293 36.9009 34.1699 36.7935C34.0469 36.6841 33.874 36.6294 33.6514 36.6294C33.4365 36.6294 33.2695 36.6753 33.1504 36.7671C33.0312 36.8569 32.9717 36.9761 32.9717 37.1245C32.9717 37.2632 33.041 37.3794 33.1797 37.4731C33.3203 37.5669 33.5264 37.6548 33.7979 37.7368C34.2979 37.8872 34.6621 38.0737 34.8906 38.2964C35.1191 38.519 35.2334 38.7964 35.2334 39.1284C35.2334 39.4976 35.0938 39.7876 34.8145 39.9985C34.5352 40.2075 34.1592 40.312 33.6865 40.312C33.3584 40.312 33.0596 40.2524 32.79 40.1333C32.5205 40.0122 32.3145 39.8472 32.1719 39.6382C32.0312 39.4292 31.9609 39.187 31.9609 38.9116H32.8428C32.8428 39.3823 33.124 39.6177 33.6865 39.6177C33.8955 39.6177 34.0586 39.5757 34.1758 39.4917C34.293 39.4058 34.3516 39.2866 34.3516 39.1343ZM39.042 36.6997H37.7354V40.2534H36.8564V36.6997H35.5674V35.9878H39.042V36.6997ZM42.1123 38.4048H40.4248V39.5474H42.4053V40.2534H39.5459V35.9878H42.3994V36.6997H40.4248V37.7163H42.1123V38.4048ZM44.5 38.6919H43.7998V40.2534H42.9209V35.9878H44.5059C45.0098 35.9878 45.3984 36.1001 45.6719 36.3247C45.9453 36.5493 46.082 36.8667 46.082 37.2769C46.082 37.5679 46.0186 37.811 45.8916 38.0063C45.7666 38.1997 45.5762 38.354 45.3203 38.4692L46.2432 40.2124V40.2534H45.2998L44.5 38.6919ZM43.7998 37.98H44.5088C44.7295 37.98 44.9004 37.9243 45.0215 37.813C45.1426 37.6997 45.2031 37.5444 45.2031 37.3472C45.2031 37.146 45.1455 36.9878 45.0303 36.8726C44.917 36.7573 44.7422 36.6997 44.5059 36.6997H43.7998V37.98ZM49.126 38.7505V40.2534H48.2471V35.9878H49.9111C50.2314 35.9878 50.5127 36.0464 50.7549 36.1636C50.999 36.2808 51.1865 36.4478 51.3174 36.6646C51.4482 36.8794 51.5137 37.1245 51.5137 37.3999C51.5137 37.8179 51.3701 38.1479 51.083 38.3901C50.7979 38.6304 50.4023 38.7505 49.8965 38.7505H49.126ZM49.126 38.0386H49.9111C50.1436 38.0386 50.3203 37.9839 50.4414 37.8745C50.5645 37.7651 50.626 37.6089 50.626 37.4058C50.626 37.1968 50.5645 37.0278 50.4414 36.8989C50.3184 36.77 50.1484 36.7036 49.9316 36.6997H49.126V38.0386ZM54.6865 38.4048H52.999V39.5474H54.9795V40.2534H52.1201V35.9878H54.9736V36.6997H52.999V37.7163H54.6865V38.4048ZM58.7646 36.6997H57.458V40.2534H56.5791V36.6997H55.29V35.9878H58.7646V36.6997ZM61.835 38.4048H60.1475V39.5474H62.1279V40.2534H59.2686V35.9878H62.1221V36.6997H60.1475V37.7163H61.835V38.4048ZM64.2227 38.6919H63.5225V40.2534H62.6436V35.9878H64.2285C64.7324 35.9878 65.1211 36.1001 65.3945 36.3247C65.668 36.5493 65.8047 36.8667 65.8047 37.2769C65.8047 37.5679 65.7412 37.811 65.6143 38.0063C65.4893 38.1997 65.2988 38.354 65.043 38.4692L65.9658 40.2124V40.2534H65.0225L64.2227 38.6919ZM63.5225 37.98H64.2314C64.4521 37.98 64.623 37.9243 64.7441 37.813C64.8652 37.6997 64.9258 37.5444 64.9258 37.3472C64.9258 37.146 64.8682 36.9878 64.7529 36.8726C64.6396 36.7573 64.4648 36.6997 64.2285 36.6997H63.5225V37.98ZM68.6875 39.1343C68.6875 38.9683 68.6289 38.8413 68.5117 38.7534C68.3945 38.6636 68.1836 38.5698 67.8789 38.4722C67.5742 38.3726 67.333 38.2749 67.1553 38.1792C66.6709 37.9175 66.4287 37.5649 66.4287 37.1216C66.4287 36.8911 66.4932 36.686 66.6221 36.5063C66.7529 36.3247 66.9395 36.1831 67.1816 36.0815C67.4258 35.98 67.6992 35.9292 68.002 35.9292C68.3066 35.9292 68.5781 35.9849 68.8164 36.0962C69.0547 36.2056 69.2393 36.3608 69.3701 36.562C69.5029 36.7632 69.5693 36.9917 69.5693 37.2476H68.6904C68.6904 37.0522 68.6289 36.9009 68.5059 36.7935C68.3828 36.6841 68.21 36.6294 67.9873 36.6294C67.7725 36.6294 67.6055 36.6753 67.4863 36.7671C67.3672 36.8569 67.3076 36.9761 67.3076 37.1245C67.3076 37.2632 67.377 37.3794 67.5156 37.4731C67.6562 37.5669 67.8623 37.6548 68.1338 37.7368C68.6338 37.8872 68.998 38.0737 69.2266 38.2964C69.4551 38.519 69.5693 38.7964 69.5693 39.1284C69.5693 39.4976 69.4297 39.7876 69.1504 39.9985C68.8711 40.2075 68.4951 40.312 68.0225 40.312C67.6943 40.312 67.3955 40.2524 67.126 40.1333C66.8564 40.0122 66.6504 39.8472 66.5078 39.6382C66.3672 39.4292 66.2969 39.187 66.2969 38.9116H67.1787C67.1787 39.3823 67.46 39.6177 68.0225 39.6177C68.2314 39.6177 68.3945 39.5757 68.5117 39.4917C68.6289 39.4058 68.6875 39.2866 68.6875 39.1343Z" fill="#2196F3"/>
</svg>
