<svg width="49" height="55" viewBox="0 0 49 55" fill="none" xmlns="http://www.w3.org/2000/svg">
<path d="M6.8501 0.635498L14.7971 8.1733H36.9656V29.2002L44.9126 36.738V0.635498H6.8501Z" fill="#AFB1B8"/>
<path d="M0.325195 7.85547V42.927H37.3002V28.9863L15.0316 7.86415L0.325195 7.85547ZM30.2566 37.7969H6.17604V14.2095H7.87821V36.1997H30.2566V37.7969Z" fill="#AFB1B8"/>
<path d="M10.8398 49.1514L11.6577 47.4668H12.3413L11.1499 49.7129V51.0215H10.5298V49.7129L9.33594 47.4668H10.022L10.8398 49.1514ZM14.3506 50.1938H12.9736L12.6855 51.0215H12.0435L13.3862 47.4668H13.9404L15.2856 51.0215H14.6411L14.3506 50.1938ZM13.147 49.6958H14.1772L13.6621 48.2212L13.147 49.6958ZM16.7847 50.062C16.7847 49.8976 16.8294 49.7471 16.9189 49.6104C17.0085 49.472 17.1851 49.3084 17.4487 49.1196C17.3104 48.9455 17.2135 48.7974 17.1582 48.6753C17.1045 48.5532 17.0776 48.4352 17.0776 48.3213C17.0776 48.043 17.1623 47.8232 17.3315 47.6621C17.5008 47.4993 17.7287 47.418 18.0151 47.418C18.2739 47.418 18.4855 47.4945 18.6499 47.6475C18.8159 47.7988 18.8989 47.9868 18.8989 48.2114C18.8989 48.3595 18.8615 48.4963 18.7866 48.6216C18.7118 48.7453 18.5889 48.869 18.418 48.9927L18.1763 49.1685L18.8623 49.979C18.9616 49.7837 19.0112 49.5664 19.0112 49.3271H19.5264C19.5264 49.765 19.4238 50.1239 19.2188 50.4038L19.7412 51.0215H19.0527L18.8525 50.7847C18.5986 50.9751 18.2959 51.0703 17.9443 51.0703C17.5928 51.0703 17.3112 50.9775 17.0996 50.792C16.8896 50.6048 16.7847 50.3615 16.7847 50.062ZM17.9614 50.5967C18.1616 50.5967 18.3488 50.5299 18.5229 50.3965L17.7466 49.481L17.6709 49.5347C17.4756 49.6828 17.3779 49.8521 17.3779 50.0425C17.3779 50.2069 17.4308 50.3403 17.5366 50.4429C17.6424 50.5454 17.784 50.5967 17.9614 50.5967ZM17.6343 48.3066C17.6343 48.4434 17.7181 48.6151 17.8857 48.8218L18.1567 48.6362L18.2324 48.5752C18.3333 48.4857 18.3838 48.3709 18.3838 48.231C18.3838 48.1382 18.3488 48.0592 18.2788 47.9941C18.2088 47.9274 18.1201 47.894 18.0127 47.894C17.8971 47.894 17.8052 47.9331 17.7368 48.0112C17.6685 48.0894 17.6343 48.1878 17.6343 48.3066ZM24.0918 49.8643C24.056 50.2435 23.916 50.5397 23.6719 50.7529C23.4277 50.9645 23.103 51.0703 22.6978 51.0703C22.4146 51.0703 22.1647 51.0036 21.9482 50.8701C21.7334 50.735 21.5674 50.5438 21.4502 50.2964C21.333 50.049 21.272 49.7617 21.2671 49.4346V49.1025C21.2671 48.7673 21.3265 48.4718 21.4453 48.2163C21.5641 47.9608 21.7342 47.7638 21.9556 47.6255C22.1785 47.4871 22.4357 47.418 22.7271 47.418C23.1193 47.418 23.4351 47.5246 23.6743 47.7378C23.9136 47.951 24.0527 48.2521 24.0918 48.6411H23.4766C23.4473 48.3856 23.3724 48.2017 23.252 48.0894C23.1331 47.9754 22.9582 47.9185 22.7271 47.9185C22.4585 47.9185 22.2518 48.0169 22.1069 48.2139C21.9637 48.4092 21.8905 48.6965 21.8872 49.0757V49.3906C21.8872 49.7747 21.9556 50.0677 22.0923 50.2695C22.2306 50.4714 22.4325 50.5723 22.6978 50.5723C22.9403 50.5723 23.1226 50.5177 23.2446 50.4087C23.3667 50.2996 23.444 50.1182 23.4766 49.8643H24.0918ZM27.4829 49.3369C27.4829 49.6852 27.4227 49.9912 27.3022 50.2549C27.1818 50.5169 27.0093 50.7188 26.7847 50.8604C26.5617 51.0003 26.3045 51.0703 26.0132 51.0703C25.7251 51.0703 25.4679 51.0003 25.2417 50.8604C25.0171 50.7188 24.8429 50.5177 24.7192 50.2573C24.5972 49.9969 24.5353 49.6966 24.5337 49.3564V49.1562C24.5337 48.8096 24.5947 48.5036 24.7168 48.2383C24.8405 47.973 25.0138 47.7703 25.2368 47.6304C25.4614 47.4888 25.7186 47.418 26.0083 47.418C26.298 47.418 26.5544 47.488 26.7773 47.6279C27.002 47.7663 27.1753 47.9665 27.2974 48.2285C27.4194 48.4889 27.4813 48.7925 27.4829 49.1392V49.3369ZM26.8652 49.1514C26.8652 48.7575 26.7904 48.4556 26.6406 48.2456C26.4925 48.0356 26.2817 47.9307 26.0083 47.9307C25.7414 47.9307 25.5322 48.0356 25.3809 48.2456C25.2311 48.4539 25.1546 48.7493 25.1514 49.1318V49.3369C25.1514 49.7275 25.2271 50.0295 25.3784 50.2427C25.5314 50.4559 25.743 50.5625 26.0132 50.5625C26.2866 50.5625 26.4966 50.4583 26.6431 50.25C26.7912 50.0417 26.8652 49.7373 26.8652 49.3369V49.1514Z" fill="#AFB1B8"/>
</svg>
