<svg width="46" height="48" viewBox="0 0 46 48" fill="none" xmlns="http://www.w3.org/2000/svg">
<path d="M7.40075 46.5333C7.41708 46.5338 7.43316 46.5373 7.44805 46.5437C7.46294 46.5501 7.47634 46.5593 7.48747 46.5707L7.71124 46.8057C7.53754 46.9959 7.32286 47.148 7.08187 47.2517C6.79967 47.3648 6.49553 47.4194 6.18957 47.4119C5.90207 47.4176 5.61642 47.3667 5.35041 47.2624C5.11047 47.1666 4.89488 47.0227 4.71825 46.8404C4.53798 46.6514 4.39913 46.4299 4.30986 46.1888C4.2121 45.9202 4.16383 45.6374 4.1672 45.353C4.16323 45.0667 4.21541 44.7823 4.32105 44.5144C4.41877 44.2719 4.56616 44.0504 4.75461 43.8628C4.94562 43.6789 5.1741 43.5344 5.42594 43.4382C5.70144 43.3362 5.99481 43.2855 6.29027 43.2887C6.56472 43.2823 6.83771 43.3286 7.09306 43.4249C7.3146 43.5166 7.51802 43.644 7.69446 43.8014L7.50705 44.0524C7.4941 44.0701 7.47801 44.0855 7.4595 44.0978C7.43738 44.1123 7.41066 44.1189 7.38397 44.1165C7.35494 44.1146 7.32695 44.1054 7.30285 44.0898L7.20215 44.0231L7.06229 43.9376C7.00192 43.9059 6.9393 43.8782 6.87488 43.8548C6.79192 43.8265 6.70683 43.8041 6.62034 43.7881C6.51057 43.7687 6.39908 43.7598 6.28747 43.7613C6.07472 43.7588 5.86358 43.7969 5.6665 43.8735C5.4827 43.9444 5.3168 44.0518 5.17979 44.1886C5.04031 44.3341 4.93283 44.5048 4.8637 44.6907C4.78492 44.9033 4.7461 45.1275 4.74902 45.353C4.74566 45.582 4.78448 45.8098 4.8637 46.0259C4.93196 46.2102 5.03745 46.3799 5.17419 46.5253C5.3023 46.6609 5.4611 46.7669 5.63852 46.8351C5.82111 46.9074 6.0171 46.9437 6.21475 46.9419C6.32892 46.9436 6.44304 46.9364 6.556 46.9205C6.74045 46.8991 6.91739 46.8379 7.07348 46.7416C7.15178 46.6923 7.22569 46.6369 7.29446 46.5761C7.32322 46.5499 7.36104 46.5347 7.40075 46.5333Z" fill="#AFB1B8"/>
<path d="M13.8622 45.3525C13.8657 45.6358 13.8145 45.9174 13.7112 46.183C13.62 46.4239 13.4764 46.6437 13.2898 46.8278C13.1032 47.0119 12.8779 47.1561 12.6287 47.2511C12.081 47.4505 11.4756 47.4505 10.928 47.2511C10.6803 47.1547 10.4565 47.0101 10.2706 46.8265C10.0842 46.639 9.93952 46.4174 9.84546 46.175C9.64396 45.6371 9.64396 45.0492 9.84546 44.5114C9.94088 44.2688 10.0853 44.0465 10.2706 43.8572C10.458 43.6794 10.6818 43.5403 10.928 43.4486C11.4749 43.2456 12.0817 43.2456 12.6287 43.4486C12.8771 43.545 13.1019 43.6895 13.2888 43.8732C13.473 44.0588 13.6165 44.2776 13.7112 44.5167C13.8148 44.7841 13.866 45.0674 13.8622 45.3525ZM13.2748 45.3525C13.2792 45.1259 13.2433 44.9001 13.1685 44.685C13.1058 44.5006 13.0039 44.3306 12.8692 44.1856C12.7381 44.0484 12.5766 43.9408 12.3965 43.8705C11.9986 43.7245 11.5581 43.7245 11.1601 43.8705C10.98 43.9408 10.8186 44.0484 10.6874 44.1856C10.5508 44.3298 10.4478 44.5 10.3853 44.685C10.243 45.1196 10.243 45.5854 10.3853 46.0201C10.4485 46.2048 10.5514 46.3749 10.6874 46.5194C10.8187 46.6558 10.9802 46.7625 11.1601 46.8318C11.5588 46.9741 11.9979 46.9741 12.3965 46.8318C12.5764 46.7625 12.7379 46.6558 12.8692 46.5194C13.0034 46.374 13.1052 46.2042 13.1685 46.0201C13.2436 45.805 13.2796 45.5792 13.2748 45.3525Z" fill="#AFB1B8"/>
<path d="M18.2707 46.0525L18.3294 46.202C18.3518 46.1486 18.3714 46.1006 18.3938 46.0525C18.4151 46.0023 18.4394 45.9533 18.4665 45.9057L19.8959 43.4251C19.9238 43.3824 19.949 43.3556 19.977 43.3476C20.015 43.3366 20.0548 43.3321 20.0945 43.3343H20.5168V47.3689H20.0161V44.4024C20.0161 44.365 20.0161 44.3222 20.0161 44.2769C20.0134 44.2306 20.0134 44.1843 20.0161 44.138L18.5784 46.6533C18.5601 46.691 18.5309 46.7228 18.4942 46.7451C18.4575 46.7673 18.4149 46.779 18.3714 46.7788H18.2903C18.2467 46.7794 18.2039 46.7678 18.1672 46.7455C18.1304 46.7232 18.1012 46.6912 18.0833 46.6533L16.6035 44.122C16.6035 44.1701 16.6035 44.2181 16.6035 44.2662C16.6035 44.3142 16.6035 44.357 16.6035 44.3943V47.3609H16.1196V43.3343H16.542C16.5817 43.3321 16.6215 43.3366 16.6595 43.3476C16.6942 43.3641 16.7218 43.3914 16.7378 43.4251L18.198 45.9083C18.2267 45.9542 18.251 46.0025 18.2707 46.0525Z" fill="#AFB1B8"/>
<path d="M23.6498 45.8519V47.363H23.0903V43.3342H24.3379C24.5733 43.3298 24.8082 43.3595 25.0343 43.4223C25.2154 43.4712 25.3833 43.5568 25.5266 43.6732C25.6509 43.7823 25.7467 43.9176 25.8064 44.0684C25.8724 44.2327 25.9047 44.4077 25.9015 44.5837C25.9039 44.7604 25.8687 44.9357 25.798 45.099C25.7307 45.2535 25.6274 45.3914 25.4959 45.5021C25.3524 45.6234 25.1836 45.7143 25.0008 45.7691C24.783 45.8355 24.5552 45.8671 24.3267 45.8625L23.6498 45.8519ZM23.6498 45.4193H24.3267C24.4737 45.4212 24.6201 45.4004 24.7602 45.3579C24.8758 45.3208 24.9824 45.2618 25.0735 45.1844C25.1575 45.1105 25.2226 45.0192 25.2637 44.9174C25.3095 44.8098 25.3323 44.6945 25.3308 44.5783C25.3373 44.4663 25.3182 44.3543 25.2747 44.2501C25.2312 44.1459 25.1645 44.052 25.0791 43.9749C24.8654 43.8157 24.597 43.7385 24.3267 43.7587H23.6498V45.4193Z" fill="#AFB1B8"/>
<path d="M31.1688 47.3688H30.7269C30.6825 47.3704 30.639 47.3572 30.6038 47.3314C30.5721 47.3062 30.5471 47.2742 30.5311 47.2379L30.1506 46.2632H28.2402L27.8458 47.2379C27.8313 47.2735 27.8071 47.3049 27.7758 47.3287C27.7403 47.3561 27.6956 47.3703 27.65 47.3688H27.208L28.8863 43.3337H29.4681L31.1688 47.3688ZM28.3996 45.8707H29.9772L29.3115 44.2283C29.2606 44.1048 29.2186 43.9781 29.1856 43.8491L29.1213 44.0601C29.1017 44.1242 29.0793 44.1829 29.0597 44.231L28.3996 45.8707Z" fill="#AFB1B8"/>
<path d="M33.5857 43.3525C33.6191 43.37 33.6478 43.3947 33.6696 43.4246L36.1171 46.4662C36.1171 46.4181 36.1171 46.3701 36.1171 46.3247C36.1171 46.2793 36.1171 46.2339 36.1171 46.1911V43.3338H36.6178V47.3688H36.3381C36.2984 47.3699 36.259 47.3617 36.2234 47.3448C36.1888 47.3255 36.1585 47.3001 36.1339 47.27L33.6892 44.2311C33.6919 44.2773 33.6919 44.3237 33.6892 44.3699C33.6892 44.4153 33.6892 44.4554 33.6892 44.4928V47.3688H33.1885V43.3338H33.485C33.5196 43.3329 33.554 43.3393 33.5857 43.3525Z" fill="#AFB1B8"/>
<path d="M40.7411 45.764V47.3662H40.1816V45.764L38.6348 43.3341H39.1355C39.1786 43.3317 39.2213 43.344 39.2558 43.3688C39.2862 43.3947 39.3118 43.4254 39.3313 43.4596L40.2991 45.0271C40.3383 45.0938 40.3719 45.1552 40.3998 45.214C40.4278 45.2727 40.4502 45.3288 40.4698 45.3849L40.5425 45.2113C40.5696 45.1478 40.6014 45.0863 40.6376 45.0271L41.5915 43.4489C41.6115 43.4174 41.636 43.3887 41.6642 43.3635C41.6974 43.3358 41.7405 43.3214 41.7845 43.3234H42.2908L40.7411 45.764Z" fill="#AFB1B8"/>
<path d="M17.9937 36.5632C18.237 36.5925 18.4832 36.6166 18.7321 36.6379C22.5064 35.0262 25.6993 32.3883 27.9117 29.054C30.1241 25.7196 31.2579 21.8368 31.1713 17.8907L27.0118 13.9202C27.8576 18.1215 27.462 22.4645 25.8693 26.4635C24.2766 30.4624 21.5497 33.9594 17.9937 36.5632Z" fill="#AFB1B8"/>
<path d="M16.5083 36.3783L16.6202 36.3997C20.4202 33.8051 23.3173 30.182 24.937 25.9988C26.5567 21.8157 26.8244 17.2649 25.7055 12.935L19.781 7.27979C22.1773 11.9283 23.1419 17.1306 22.5625 22.2818C21.9832 27.433 19.8837 32.3213 16.5083 36.3783Z" fill="#AFB1B8"/>
<path d="M36.6009 22.5527C35.5944 26.8886 33.1498 30.7989 29.6303 33.7033C28.6024 34.5562 27.4936 35.316 26.3184 35.9729C29.1843 35.1688 31.8185 33.7471 34.0179 31.8176C36.2173 29.888 37.9231 27.5021 39.0037 24.8437L36.6009 22.5527Z" fill="#AFB1B8"/>
<path d="M35.6581 21.9145L32.2371 18.6489C32.1717 22.3721 31.0629 26.0105 29.0259 29.1862C26.9888 32.3618 24.098 34.9587 20.6538 36.707H20.6706C21.4381 36.7067 22.205 36.6631 22.9671 36.5762C26.1859 35.3221 29.0294 33.3269 31.2438 30.7686C33.4583 28.2102 34.9748 25.1684 35.6581 21.9145Z" fill="#AFB1B8"/>
<path d="M17.0036 4.895L12.9224 0.993896C9.27404 2.33969 6.13628 4.70556 3.9198 7.78184C1.70332 10.8581 0.511385 14.5015 0.5 18.2351H0.5C0.513674 22.3607 1.96834 26.3641 4.63377 29.6116C7.29919 32.8592 11.0231 35.1654 15.2161 36.1653C18.9592 31.8121 21.1507 26.4329 21.4722 20.8094C21.7936 15.186 20.2282 9.61116 17.0036 4.895Z" fill="#AFB1B8"/>
<path d="M45.0874 21.3138C45.0726 16.4191 43.0291 11.7288 39.4033 8.26769C35.7775 4.80657 30.864 2.8559 25.7363 2.84181C23.3669 2.83946 21.0175 3.25684 18.8076 4.07274L43.7951 27.925C44.6507 25.8166 45.0889 23.5749 45.0874 21.3138Z" fill="#AFB1B8"/>
</svg>
