<svg width="98" height="51" viewBox="0 0 98 51" fill="none" xmlns="http://www.w3.org/2000/svg">
<path d="M49.5556 24.0813C49.101 23.4165 48.8836 22.6307 48.9352 21.8398V18.59C48.9352 17.5938 49.1408 16.8367 49.5521 16.3188C49.9634 15.8008 50.6697 15.543 51.6712 15.5452C52.6123 15.5452 53.2803 15.7656 53.6753 16.2064C54.1062 16.7688 54.3158 17.4566 54.2678 18.1503V18.914H52.5844V18.1404C52.5903 17.8872 52.574 17.634 52.5356 17.3833C52.5114 17.2119 52.4266 17.0534 52.2951 16.9337C52.1222 16.8046 51.9045 16.7421 51.6851 16.7585C51.4545 16.7422 51.2258 16.8082 51.0438 16.9436C50.8972 17.0763 50.7995 17.2501 50.765 17.4395C50.7167 17.7048 50.6946 17.9737 50.6988 18.2429V22.187C50.6722 22.5675 50.7465 22.9482 50.9149 23.2945C50.9986 23.4116 51.1149 23.5045 51.2508 23.5629C51.3868 23.6212 51.5371 23.6428 51.6851 23.6251C51.9008 23.6419 52.1148 23.5778 52.2811 23.4466C52.4183 23.3174 52.5066 23.1489 52.5321 22.9672C52.5714 22.7055 52.5889 22.4413 52.5844 22.177V21.377H54.2678V22.1076C54.315 22.8308 54.1105 23.5486 53.6857 24.1507C53.2989 24.6334 52.6401 24.8748 51.6712 24.8748C50.7023 24.8748 49.9703 24.6169 49.5556 24.0813Z" fill="#AFB1B8"/>
<path d="M56.5646 24.1144C56.1394 23.6086 55.9268 22.8713 55.9268 21.896V18.4776C55.9268 17.5123 56.1394 16.7816 56.5646 16.2857C56.9898 15.7898 57.7008 15.543 58.6976 15.5452C59.6875 15.5452 60.395 15.792 60.8202 16.2857C61.2455 16.7816 61.4615 17.5123 61.4615 18.4776V21.896C61.4615 22.8614 61.2455 23.6019 60.8133 24.1111C60.3811 24.6202 59.677 24.8748 58.6976 24.8748C57.7182 24.8748 56.9933 24.6169 56.5646 24.1144ZM59.4819 23.2945C59.6341 22.9776 59.7035 22.6306 59.684 22.2828V18.0974C59.7035 17.7564 59.6354 17.4161 59.4853 17.1056C59.3999 16.986 59.2808 16.8916 59.1415 16.8331C59.0022 16.7746 58.8484 16.7545 58.6976 16.775C58.5464 16.755 58.3923 16.7754 58.2526 16.8338C58.1128 16.8922 57.993 16.9863 57.9065 17.1056C57.7532 17.4151 57.6837 17.756 57.7043 18.0974V22.3027C57.6831 22.6505 57.7526 22.998 57.9065 23.3143C58.0046 23.421 58.1257 23.5064 58.2615 23.565C58.3974 23.6236 58.5449 23.6539 58.6942 23.6539C58.8434 23.6539 58.9909 23.6236 59.1268 23.565C59.2626 23.5064 59.3837 23.421 59.4819 23.3143V23.2945Z" fill="#AFB1B8"/>
<path d="M63.4861 15.6448H65.2985L66.6612 21.952L68.0554 15.6448H69.819L69.9967 24.7485H68.6932L68.5538 18.4215L67.2084 24.7485H66.1628L64.7687 18.3984L64.6397 24.7485H63.3223L63.4861 15.6448Z" fill="#AFB1B8"/>
<path d="M72.029 15.6448H74.8521C76.4786 15.6448 77.2919 16.5064 77.2919 18.2298C77.2919 19.8804 76.4356 20.7046 74.7232 20.7024H73.7612V24.7485H72.0186L72.029 15.6448ZM74.4409 19.5355C74.6131 19.5562 74.7879 19.5413 74.9534 19.4916C75.1189 19.442 75.271 19.3588 75.3993 19.2479C75.5992 18.9405 75.6873 18.5794 75.6503 18.2199C75.6594 17.9422 75.6313 17.6645 75.5666 17.3935C75.5418 17.3029 75.4982 17.218 75.4383 17.1437C75.3785 17.0693 75.3036 17.007 75.2181 16.9604C74.9762 16.8504 74.7087 16.8003 74.4409 16.815H73.7647V19.5355H74.4409Z" fill="#AFB1B8"/>
<path d="M79.8052 15.6448H81.6768L83.5973 24.7485H81.9731L81.5932 22.6494H79.9237L79.5333 24.7485H77.8848L79.8052 15.6448ZM81.405 21.5949L80.7532 17.7736L80.1015 21.5949H81.405Z" fill="#AFB1B8"/>
<path d="M85.148 15.6448H86.3679L88.703 20.838V15.6448H90.1494V24.7485H88.9888L86.6397 19.3273V24.7485H85.1445L85.148 15.6448Z" fill="#AFB1B8"/>
<path d="M93.537 21.2774L91.5957 15.6575H93.2303L94.4154 19.2674L95.5272 15.6575H97.127L95.21 21.2774V24.7485H93.537V21.2774Z" fill="#AFB1B8"/>
<path d="M52.2469 28.729V29.2051H50.8249V32.9045H50.2289V29.2051H48.7998V28.729H52.2469Z" fill="#AFB1B8"/>
<path d="M56.7046 32.9049H56.2445C56.1978 32.9076 56.1517 32.8935 56.1156 32.8652C56.0807 32.841 56.0541 32.8077 56.0389 32.7694L55.6276 31.7776H53.6549L53.2436 32.7694C53.2319 32.8108 53.2104 32.8493 53.1808 32.8818C53.1444 32.9094 53.0985 32.9235 53.0519 32.9214H52.5918L54.3345 28.7461H54.941L56.7046 32.9049ZM53.8187 31.3544H55.4638L54.7667 29.6552C54.7153 29.5267 54.6722 29.3953 54.6377 29.2618C54.6133 29.3412 54.5924 29.4172 54.5715 29.4833L54.5088 29.6585L53.8187 31.3544Z" fill="#AFB1B8"/>
<path d="M59.7082 32.4946C59.8174 32.5 59.9267 32.5 60.0359 32.4946C60.1301 32.4854 60.2233 32.4688 60.3147 32.445C60.4001 32.4251 60.4839 32.3997 60.5656 32.3689C60.6423 32.3392 60.719 32.3028 60.7991 32.2665V31.3275H60.1021C60.0848 31.3284 60.0676 31.326 60.0514 31.3203C60.0352 31.3146 60.0204 31.3058 60.008 31.2944C59.9965 31.285 59.9875 31.2733 59.9814 31.2602C59.9754 31.247 59.9726 31.2327 59.9731 31.2184V30.8977H61.3254V32.4979C61.2151 32.5728 61.0985 32.6391 60.9769 32.6963C60.8526 32.7544 60.7232 32.802 60.59 32.8384C60.4475 32.8782 60.3018 32.907 60.1544 32.9244C59.9854 32.9422 59.8155 32.951 59.6455 32.9508C59.3449 32.9532 59.0466 32.9005 58.7672 32.7955C58.5062 32.6959 58.2692 32.5475 58.0701 32.359C57.8761 32.1686 57.7233 31.944 57.6205 31.6978C57.5106 31.421 57.4563 31.1272 57.4602 30.8315C57.4565 30.534 57.5096 30.2383 57.617 29.9587C57.7173 29.7113 57.8703 29.4861 58.0666 29.2974C58.2655 29.1096 58.5027 28.9622 58.7637 28.8643C59.0621 28.7578 59.3789 28.7051 59.6978 28.7089C59.86 28.7087 60.022 28.7209 60.1822 28.7453C60.3239 28.7672 60.4629 28.8026 60.597 28.8511C60.7189 28.8946 60.8357 28.95 60.9455 29.0164C61.0524 29.0817 61.1537 29.1546 61.2488 29.2346L61.0815 29.4925C61.0684 29.5161 61.0488 29.5359 61.0249 29.5498C61.001 29.5638 60.9736 29.5714 60.9455 29.5719C60.907 29.5707 60.8695 29.5592 60.8375 29.5388C60.7852 29.5124 60.7294 29.4793 60.6667 29.4396C60.5926 29.3955 60.5144 29.3579 60.4332 29.3272C60.3293 29.2877 60.222 29.2567 60.1125 29.2346C59.9665 29.2091 59.8183 29.1969 59.6699 29.1983C59.4399 29.1958 59.2116 29.2351 58.9972 29.314C58.8033 29.3878 58.6285 29.5006 58.4849 29.6446C58.3404 29.7947 58.2301 29.9714 58.1607 30.1637C58.005 30.6159 58.005 31.1034 58.1607 31.5556C58.237 31.752 58.3557 31.931 58.5093 32.0813C58.6522 32.2245 58.8257 32.3373 59.0181 32.4119C59.2397 32.4841 59.4746 32.5122 59.7082 32.4946Z" fill="#AFB1B8"/>
<path d="M65.2637 32.4285H67.1667V32.9045H64.6816V28.729H65.2777L65.2637 32.4285Z" fill="#AFB1B8"/>
<path d="M69.1469 32.9045H68.5508V28.729H69.1469V32.9045Z" fill="#AFB1B8"/>
<path d="M71.3638 28.749C71.3992 28.7682 71.4301 28.7941 71.4544 28.8251L74.0022 31.9724C73.9987 31.9229 73.9987 31.8732 74.0022 31.8237C74.0022 31.7774 74.0022 31.7311 74.0022 31.6881V28.7126H74.5215V32.9047H74.2218C74.1774 32.9082 74.1328 32.9002 74.0928 32.8816C74.0566 32.8608 74.0247 32.8339 73.9987 32.8023L71.4544 29.6582C71.4544 29.7078 71.4544 29.7541 71.4544 29.8003C71.4544 29.8466 71.4544 29.8896 71.4544 29.9293V32.9047H70.9561V28.7292H71.2662C71.2999 28.7292 71.3331 28.736 71.3638 28.749Z" fill="#AFB1B8"/>
<path d="M78.9091 28.729V29.1885H76.797V30.5671H78.5083V31.0101H76.797V32.435H78.9091V32.8945H76.1836V28.729H78.9091Z" fill="#AFB1B8"/>
<path d="M16.4552 2.94367L42.9195 10.0711V35.0469L16.4552 27.9228V2.94367ZM14.7578 0.814697V29.136L44.6134 37.1792V8.86117L14.7578 0.814697Z" fill="#AFB1B8"/>
<path d="M30.7593 50.3264L0.900391 42.2765V13.958L30.7593 22.0046V50.3264Z" fill="#AFB1B8"/>
<path d="M15.2531 2.62297L41.3723 9.66102L30.2645 20.1999L4.14177 13.1586L15.2531 2.62297ZM14.7581 0.814697L0.900391 13.9586L30.7594 22.0049L44.6136 8.86102L14.7581 0.814697Z" fill="#AFB1B8"/>
<path d="M32.4395 48.7332L44.6136 37.1828L32.4395 33.9001V48.7332Z" fill="#AFB1B8"/>
</svg>
